<?xml version="1.0" encoding="UTF-8"?>
<svg id="Capa_2" data-name="Capa 2" xmlns="http://www.w3.org/2000/svg" viewBox="0 0 97.97 180.03">
  <defs>
    <style>
      .cls-1 {
        fill: #faedcd;
        stroke: #000;
        stroke-miterlimit: 10;
        stroke-width: 3px;
      }
    </style>
  </defs>
  <g id="Capa_1-2" data-name="Capa 1">
    <path class="cls-1" d="m84.54,162.74c.03-.36.05-.79.05-1.01,0-.19-.01-.38-.04-.57h-.01c-.27-1.84-1.78-3.25-3.62-3.25h-1.49s.02-.02.03-.02c0,0,.02,0,.02,0,0,0-.01,0-.02,0,1.57-1.39,4.1-3.67,4.91-4.5.84-.85,2-1.82,2.32-3.04.03-.1.04-.2.05-.3.11-.93-.38-1.92-1.1-2.52-1.09-.93-2.14-1.87-3.21-2.82-.95-.83-1.91-1.64-2.84-2.5-1.76-1.62-7.25-6.82-8.44-7.88h0s.07,0,.07,0c0,0-.03,0-.07,0v-.02c-3.77-.51-3.59-7.41-.25-7h.04s0,0,0-.01c0,0,.02,0,.02,0h-.03c-17.21-36.61-9.12-51.86-8.44-53.04,1.69-.08,3.03-1.46,3.03-3.17,0-.17-.03-.33-.05-.49h0c-.24-1.53-1.54-2.69-3.13-2.69h-.53c.97-.43,1.65-1.4,1.65-2.53,0-1.34-.96-2.46-2.22-2.72.28-.34.65-.81,1.09-1.37,3.53-4.47,11.61-15.17,11.33-19.15-.2-2.79-4.06-12.56-7.64-21.09,0,0,0,0,0,0,0,0,0,0,0,0h0c-.05.09-.11.19-.17.29-.07.09-.14.21-.24.35-.25.39-.63.95-1.07,1.63-.42.69-.94,1.46-1.47,2.32-.53.86-1.07,1.78-1.63,2.7-.54.93-1.09,1.85-1.58,2.73-.51.87-.95,1.71-1.34,2.41-.39.7-.69,1.31-.91,1.72-.05.09-.08.16-.12.24-.18.28-.3.43-.32.43-.22-.09-2.92-2.82-2.72-3.08.04-.07.19-.31.43-.7.26-.47.67-1.14,1.11-1.95.44-.8.98-1.74,1.52-2.77.54-1.02,1.13-2.12,1.7-3.21.56-1.1,1.12-2.21,1.64-3.24.53-1.03.98-2.01,1.39-2.84.41-.83.72-1.54.95-2.03.16-.34.26-.57.31-.68.01-.02.03-.05.04-.07,0,0,0,0,0,0,0,0,0,0,0,0,0,0,0,0,0,0-1.9-4.4-3.37-7.69-3.64-8.2,0-.01-.02-.03-.02-.04.04,0,.06,0,.06,0,0,0-.02,0-.06,0,0,0,0,0,0,0,0,0,0,0,0,0,.11-.03.21-.06.31-.1.06-.02.12-.04.17-.07.1-.05.2-.1.29-.16.08-.05.16-.1.23-.16.08-.06.16-.12.24-.2.06-.05.11-.11.16-.17.05-.06.1-.12.15-.19.05-.06.09-.12.13-.19.06-.09.1-.18.15-.27.18-.37.28-.77.28-1.2,0-1.53-1.25-2.77-2.78-2.77h-19.52c-1.53,0-2.77,1.24-2.77,2.77,0,.39.08.77.23,1.11h0c.06.14.13.27.21.4.04.06.08.11.11.16.05.07.11.14.17.21.05.05.1.1.15.15.07.07.15.13.23.19.06.05.13.1.2.14.1.07.21.13.33.18.06.03.11.05.17.07.1.04.2.07.31.1,0,0,0,0,0,0-.01.02-.02.03-.03.05-.8,1.6-13.39,29.99-13.75,35.08-.31,4.46,9.87,17.35,12.39,20.47-1.48.07-2.66,1.27-2.66,2.76,0,1.13.68,2.1,1.65,2.53h-.53c-1.76,0-3.18,1.43-3.18,3.19,0,1.66,1.28,3.02,2.91,3.16.64,1.09,8.83,16.33-8.44,53.07h.07c3.6.74,3.51,6.49-.26,7v.03c-1.19,1.06-6.68,6.26-8.44,7.88-.93.85-1.89,1.66-2.84,2.5-1.07.95-2.13,1.89-3.21,2.82-.65.55-1.11,1.42-1.11,2.27h0s0,.03,0,.04c0,.06,0,.12,0,.18,0,.11.02.22.06.33.32,1.22,1.48,2.2,2.32,3.04.82.83,3.38,3.15,4.94,4.53h-1.91c-1.85,0-3.36,1.41-3.63,3.25h0c-.03.18-.05.38-.05.57,0,.24-.01.67.01,1.01-6.58.16-11.89,7.14-11.89,15.73,0,.02,0,.04,0,.06h94.97v-.06c0-8.61-5.33-15.6-11.93-15.73Z"/>
  </g>
</svg>