<?xml version="1.0" encoding="UTF-8"?>
<svg id="Capa_2" data-name="Capa 2" xmlns="http://www.w3.org/2000/svg" viewBox="0 0 81.26 155.4">
  <defs>
    <style>
      .cls-1 {
        stroke: #fff;
        stroke-miterlimit: 10;
        stroke-width: 3px;
      }
    </style>
  </defs>
  <g id="Capa_1-2" data-name="Capa 1">
    <g>
      <path class="cls-1" d="m74.1,142.6c3.12,0,5.65-2.53,5.65-5.65,0-4.13-3.61-5.77-6.68-7.58-1.41-.84-2.78-1.75-4.09-2.74-1.3-.99-2.55-2.05-3.74-3.18-.61-.58-1.2-1.17-1.77-1.79-.22-.24-1.5-1.69-1.5-1.69H19.28s-1.28,1.45-1.5,1.69c-.57.61-1.16,1.21-1.77,1.79-1.18,1.13-2.43,2.19-3.74,3.18-1.31.99-2.67,1.91-4.09,2.74-3.07,1.81-6.68,3.45-6.68,7.58,0,3.12,2.53,5.65,5.65,5.65-1.04,0-2.01.28-2.84.76-1.68.98-2.81,2.8-2.81,4.89v5.65h78.26v-5.65c0-3.12-2.53-5.65-5.65-5.65Z"/>
      <path class="cls-1" d="m13.36,53.97c.98.08,1.92-.04,2.79-.33,2.02-3.68,5.49-6.45,9.65-7.53.52-.12,1.06-.17,1.6-.17.46,0,.92.04,1.37.13.42.08.81.25,1.22.36.87.23,1.77.35,2.67.35,4.71,0,8.71-3.03,10.17-7.25h0c.07.87.1,1.74.1,2.61,0,6.22-1.79,12.02-4.88,16.92-.28.38-1.33,1.78-2.88,3.51-3.43,3.76-7.83,6.42-11.48,9.94-7.89,7.63-12.53,18.18-12.87,29.12,0,0,0,0,0,.01-.08,1.31-.04,2.62-.04,3.93,0,3.7,2.48,6.82,5.87,7.8.45.13,1.09.19,1.7.22h-1.07c-1.17,0-1.91,1.26-1.33,2.28l3.37,4.07h42.58l3.37-4.07c.57-1.02-.16-2.28-1.33-2.28h-1.73c4.32,0,7.83-3.46,7.91-7.77-.03-.45-.06-.9-.09-1.36-.15-2.44-.23-4.9-.23-7.38,0-8.37.74-17.33,2.51-25.78-.04.14-.08.29-.12.44.17-.84.35-1.68.54-2.51.43-1.85.91-3.66,1.44-5.44,2.49-8.3,2.5-17.4-.77-25.49-2.48-6.16-6.65-11.59-11.95-15.59-2.65-2.01-5.59-3.62-8.67-4.87-2.86-1.16-9.72-2.72-9.72-2.36v-.02h.01V5.3s0,0-.01.02v-.02c0-.74-.77-1.24-1.45-.93-4.6,2.14-7.98,6.4-8.96,11.53v.02s0,0,0,0c-2.68,0-4.57,1.35-6.26,3.63,0,0-18,22.59-18,22.59-1.18,1.4-1.83,3.26-1.66,5.27.3,3.48,3.14,6.29,6.62,6.56Z"/>
    </g>
  </g>
</svg>