<?xml version="1.0" encoding="UTF-8"?>
<svg id="Capa_2" data-name="Capa 2" xmlns="http://www.w3.org/2000/svg" viewBox="0 0 100.1 223.98">
  <defs>
    <style>
      .cls-1 {
        fill: #faedcd;
        stroke: #000;
        stroke-miterlimit: 10;
        stroke-width: 3px;
      }
    </style>
  </defs>
  <g id="Capa_1-2" data-name="Capa 1">
    <g>
      <path class="cls-1" d="m19.57,26.51c-.16-.29-.33-.58-.5-.86,1.32-1.72,3.4-2.84,5.75-2.84,1.22,0,2.44.31,3.51.91.87.48,1.57,1.18,2.17,1.95,3.48-7.3,10.92-12.34,19.55-12.34t0,0c-.16,0-.31,0-.47-.02-.04,0-.08,0-.12-.01-.15-.02-.3-.04-.44-.07-.03,0-.06-.01-.08-.02-.12-.03-.25-.06-.37-.09-.04-.01-.08-.02-.12-.04-.14-.04-.27-.09-.4-.14-.04-.02-.08-.03-.12-.05-.1-.05-.2-.09-.3-.14-.04-.02-.08-.04-.12-.06-.12-.07-.23-.14-.34-.21-.04-.03-.08-.06-.13-.09-.08-.06-.17-.12-.25-.18-.05-.04-.09-.07-.13-.11-.09-.07-.17-.15-.25-.23-.05-.04-.09-.08-.13-.13-.07-.07-.14-.15-.21-.23-.05-.06-.1-.12-.15-.18-.05-.07-.1-.14-.16-.21-.04-.06-.08-.11-.11-.16,0-.01-.01-.02-.02-.03,0,0,0,0,0,0-.52-.82-.83-1.79-.83-2.83,0-2.9,2.35-5.24,5.24-5.24,1.01,0,1.95.29,2.75.78,0,0,0,0,0,0,.03.01.05.03.08.05.06.04.12.08.18.12.1.07.2.14.29.22.05.04.1.08.15.13.06.05.12.11.18.16.05.04.09.09.14.13.09.09.17.18.25.28.04.05.07.09.11.14.06.07.11.15.17.23.03.04.06.08.09.13.07.11.14.22.21.34.02.05.05.09.07.14.05.1.1.2.14.3.02.04.03.07.05.1.05.13.1.26.15.4.01.04.03.08.04.13.04.12.07.25.1.38,0,.02.01.05.01.07.03.15.05.3.07.45,0,.04,0,.08.01.12.01.16.02.31.02.47h0c0,1.45-.59,2.76-1.53,3.71s-2.26,1.54-3.71,1.54c8.65,0,16.11,5.07,19.58,12.41.62-.8,1.33-1.52,2.23-2.02,1.07-.59,2.29-.91,3.51-.91,2.34,0,4.42,1.11,5.75,2.84-.17.29-.33.57-.5.86-5.28,7.15-9.39,15.14-12.2,23.74-2.81,8.59-4.3,17.79-4.33,27.35-.05,1.46-.07,2.95-.03,4.46h.15c1.1,0,1.98.89,1.98,1.98s-.81,1.9-1.84,1.98c.22,1.7.58,3.38,1.15,4.97h1.57c2.07,0,3.24,1.83,3.24,3.51s-1.17,3.08-2.75,3.42c-.05.01-.1.02-.14.03h1.68c3.22,0,4.72,2.56,4.72,4.9s-1.64,4.3-3.84,4.78c-.34.08-.7.12-1.06.12h-5.76c0,22.7,4.74,45.33,13.28,64.68h2.56c1.45,0,2.37,1.57,1.65,2.83l-4.18,5.05H23.63l-4.18-5.05c-.71-1.27.2-2.83,1.65-2.83h2.56c8.73-19.54,13.59-41.71,13.59-64.68h-6.11c-2.69-.03-4.86-2.21-4.86-4.9s2.19-4.9,4.9-4.9h1.21c-1.64-.3-2.88-1.73-2.88-3.45,0-1.94,1.57-3.51,3.51-3.51h1.66c.57-1.6.93-3.27,1.15-4.97-1.02-.08-1.84-.93-1.84-1.98,0-1.1.89-1.98,1.98-1.98h.15c.04-1.5.02-3-.03-4.46h.05c-.05-19.12-6.03-36.78-16.57-51.08Z"/>
      <path class="cls-1" d="m98.6,215.46v7.02H1.5v-7.02c0-2.59,1.4-4.85,3.49-6.07,1.04-.6,2.24-.95,3.53-.95-3.87,0-7.02-3.14-7.02-7.02,0-5.12,4.48-7.16,8.29-9.41,1.75-1.04,3.44-2.17,5.07-3.4,1.62-1.23,3.17-2.54,4.64-3.94.75-.72,1.49-1.46,2.2-2.22.28-.3,1.87-2.1,1.87-2.1h52.99s1.59,1.8,1.87,2.1c.71.76,1.44,1.5,2.2,2.22,1.47,1.4,3.02,2.71,4.64,3.94,1.62,1.23,3.32,2.37,5.07,3.4,3.81,2.25,8.29,4.29,8.29,9.41,0,3.87-3.14,7.02-7.02,7.02,3.87,0,7.02,3.14,7.02,7.02Z"/>
    </g>
  </g>
</svg>