<?xml version="1.0" encoding="UTF-8"?>
<svg id="Capa_2" data-name="Capa 2" xmlns="http://www.w3.org/2000/svg" viewBox="0 0 85.53 163.34">
  <defs>
    <style>
      .cls-1 {
        stroke: #fff;
        stroke-miterlimit: 10;
        stroke-width: 3px;
      }
    </style>
  </defs>
  <g id="Capa_1-2" data-name="Capa 1">
    <path class="cls-1" d="m84.03,153.42v8.42H1.5v-8.42c0-3.11,1.69-5.82,4.19-7.28.62-.36,1.29-.64,2-.84.71-.19,1.46-.3,2.23-.3-4.65,0-8.42-3.77-8.42-8.42,0-3.11,1.69-5.82,4.19-7.28.02-.01.04-.02.05-.03l-.05-.05c6.42-3.53,11.23-7.97,14-14.72h-.13l-5.01-6.05c-.86-1.52.24-3.4,1.98-3.4h4.28c6.53-14.58,10.39-30.74,11-47.73-.16-1.33-.81-2.52-1.77-3.37-.95-.85-2.21-1.37-3.59-1.37h-2.01c-1.99,0-2.73-2.62-1.03-3.66,3.52-2.14,7.4-3.75,11.52-4.7-4.58-1.66-8.46-4.8-11.05-8.84.02.01.04.02.06.03-2.21-3.43-3.5-7.52-3.5-11.91C20.45,11.35,30.31,1.5,42.46,1.5c8.17,0,15.29,4.45,19.09,11.06.02.03.03.06.05.09.32.56.61,1.13.88,1.72.03.07.06.14.09.2.25.56.47,1.13.68,1.71.04.11.08.22.11.34.07.2.13.41.19.62.06.2.11.4.17.6.04.15.08.3.11.45.04.17.08.33.11.5.03.14.06.27.09.41.05.27.1.54.14.8.02.13.04.25.06.37.03.23.06.46.09.69.01.08.02.17.03.25.03.31.05.61.07.93,0,.1.01.19.01.29.01.32.02.64.02.96v.02h0c0,9.16-5.58,17.01-13.53,20.33.54.1,1.08.21,1.61.33.13.03.26.06.39.09.23.05.45.11.68.16.13.03.27.07.4.11.36.1.72.2,1.08.31.16.05.32.1.48.15.19.06.39.12.58.18.25.08.5.17.75.26.21.07.42.15.63.23.21.08.42.16.63.24.15.06.31.12.46.18.32.13.64.26.96.4.1.04.19.09.29.13.26.12.52.24.78.36.11.06.23.11.34.16.34.16.67.33,1,.5.04.02.08.04.12.06.31.16.61.33.92.5.09.05.18.1.27.15.34.19.67.38,1,.59.26.16.47.36.62.59.06.09.11.18.15.28.06.14.11.29.14.44.02.1.03.2.03.31.01.41-.1.82-.33,1.16-.05.09-.12.17-.18.24-.34.39-.84.64-1.47.64h-4.82c-2.76,0-5.03,2.07-5.35,4.74.6,16.86,4.37,33.3,10.74,47.73h4.54c1.74,0,2.84,1.88,1.98,3.39l-5.01,6.06h-.13c2.78,6.75,7.59,11.19,14,14.72l-.06.05s.04.02.06.03c2.51,1.46,4.19,4.17,4.19,7.28,0,4.44-3.44,8.07-7.81,8.39v.03c4.65,0,8.42,3.77,8.42,8.42Z"/>
  </g>
</svg>