<?xml version="1.0" encoding="UTF-8"?>
<svg id="Capa_2" data-name="Capa 2" xmlns="http://www.w3.org/2000/svg" viewBox="0 0 92.16 250.84">
  <defs>
    <style>
      .cls-1 {
        stroke: #fff;
        stroke-miterlimit: 10;
        stroke-width: 3px;
      }
    </style>
  </defs>
  <g id="Capa_1-2" data-name="Capa 1">
    <g>
      <path class="cls-1" d="m90.66,242.9v6.44H1.5v-6.44c0-2.38,1.29-4.46,3.21-5.57.95-.55,2.06-.87,3.24-.87-3.56,0-6.44-2.88-6.44-6.44,0-4.7,4.12-6.57,7.61-8.63,1.61-.95,3.16-2,4.65-3.12,1.49-1.12,2.91-2.34,4.26-3.62.69-.66,1.36-1.34,2.02-2.04.25-.27,1.71-1.93,1.71-1.93h48.65s1.46,1.66,1.71,1.93c.65.7,1.33,1.38,2.02,2.04,1.35,1.28,2.77,2.49,4.26,3.62,1.49,1.13,3.05,2.17,4.65,3.12,3.49,2.07,7.61,3.93,7.61,8.63,0,3.56-2.88,6.44-6.44,6.44,3.56,0,6.44,2.88,6.44,6.44Z"/>
      <path class="cls-1" d="m17.99,206c-.66-1.16.18-2.6,1.52-2.6h2.35c6.34-14.2,10.46-29.9,11.9-46.28.08-1.43.13-2.87.13-4.31,0-6.13-.75-12.09-2.14-17.8h28.95c-1.4,5.7-2.15,11.66-2.15,17.8,0,1.39.05,2.78.13,4.15,1.4,16.39,5.42,32.36,11.63,46.44h2.35c1.33,0,2.17,1.44,1.51,2.6l-3.84,4.63H21.82l-3.84-4.63Z"/>
      <path class="cls-1" d="m18.14,73.28c-.26-.77-.38-1.69-.38-2.52,0-2.95,1.51-5.7,3.94-7.35,1.39-.95,2.88-1.32,4.51-1.65,1.97-.4,3.95-.75,5.94-1.03.55-.08,1.1-.15,1.65-.22-1.67-.12-3-1.51-3-3.21s1.44-3.23,3.23-3.23h2.32l4.89-14.95-11.48,3.4v-15.1l11.48,3.4-4.92-15.03,9.84-4.67,9.84,4.67-4.9,14.98,11.31-3.35v15.1l-11.31-3.35,4.88,14.9h2.42c.11,0,.23,0,.33.02,0,0,.02-.02.02-.02.07.02.14.04.2.06,1.56.29,2.42,1.78,2.42,3.17,0,1.54-1.08,2.83-2.52,3.14-.15.03-.29.05-.45.07h0c.54.07,1.08.14,1.63.22,1.99.28,3.97.63,5.94,1.03,1.63.33,3.12.71,4.51,1.65,2.43,1.65,3.94,4.4,3.94,7.35,0,.83-.12,1.75-.38,2.52,0,0-1.52,4.45-3.62,10.58-2.1,6.13-4.78,13.96-7.09,20.72-.91,2.65-1.76,5.15-2.5,7.31h.02c-.07.21-.14.43-.2.66.84.16,1.47.9,1.47,1.79,0,1-.81,1.82-1.82,1.82h-.13v.08c0,1.17.16,2.3.46,3.37h4.06c1.91,0,2.97,1.68,2.97,3.22s-1.08,2.83-2.52,3.15c-.04,0-.09.02-.13.02h2.4c2.96,0,4.33,2.35,4.33,4.5s-1.51,3.95-3.52,4.39c-.32.07-.64.11-.98.11H24.64c-2.47-.02-4.46-2.03-4.46-4.5s2.01-4.5,4.5-4.5h1.13c-1.5-.27-2.64-1.59-2.64-3.17,0-1.78,1.44-3.22,3.23-3.22h5.31c.3-1.07.46-2.2.46-3.37,0-.03,0-.05,0-.08h-.37c-1,0-1.82-.81-1.82-1.82,0-.94.71-1.71,1.61-1.81-4.44-12.97-13.44-39.25-13.44-39.25Z"/>
      <path class="cls-1" d="m42.03,8.91c-.48-.75-.76-1.64-.76-2.6,0-2.66,2.16-4.81,4.81-4.81.93,0,1.78.27,2.52.72.02.01.05.03.07.04.05.04.11.07.16.11.09.06.18.13.26.2.05.04.09.08.14.12.06.05.11.1.17.15.04.04.08.08.12.12.08.08.16.17.23.26.03.04.07.08.1.12.05.07.11.14.15.21.03.04.06.08.08.12.07.1.13.21.19.31.02.04.04.08.07.12.05.09.09.18.13.27.02.03.03.07.04.1.05.12.09.24.13.37.01.04.02.08.04.12.03.11.06.23.09.34,0,.02,0,.04.01.06.03.14.05.27.07.41v.11c.02.14.03.28.03.43h0c0,2.66-2.15,4.82-4.81,4.82h0c-.15,0-.29,0-.43-.02-.03,0-.07,0-.11,0-.14-.02-.27-.03-.41-.06-.02,0-.05-.01-.07-.02-.11-.02-.23-.05-.34-.09-.03,0-.07-.02-.11-.03-.12-.04-.25-.08-.37-.13-.04-.02-.07-.03-.11-.05-.09-.04-.19-.08-.28-.13-.03-.02-.07-.03-.11-.05-.11-.06-.21-.12-.32-.19-.04-.03-.08-.06-.12-.08-.08-.05-.15-.11-.23-.17-.04-.03-.08-.07-.12-.1-.08-.07-.16-.14-.23-.21-.04-.04-.08-.08-.12-.12-.07-.07-.13-.14-.19-.2-.05-.06-.09-.11-.14-.17-.05-.06-.1-.13-.15-.19-.03-.05-.07-.1-.1-.15,0,0-.02-.02-.02-.03h0Z"/>
    </g>
  </g>
</svg>