<?xml version="1.0" encoding="UTF-8"?>
<svg id="Capa_2" data-name="Capa 2" xmlns="http://www.w3.org/2000/svg" viewBox="0 0 92.49 156.2">
  <defs>
    <style>
      .cls-1 {
        stroke: #fff;
        stroke-miterlimit: 10;
        stroke-width: 3px;
      }
    </style>
  </defs>
  <g id="Capa_1-2" data-name="Capa 1">
    <g>
      <path class="cls-1" d="m90.99,148.23v6.47H1.5v-6.47c0-2.39,1.29-4.47,3.22-5.59.95-.56,2.06-.87,3.25-.87-3.57,0-6.47-2.9-6.47-6.47,0-4.72,4.13-6.59,7.64-8.67,1.61-.96,3.18-2,4.67-3.14,1.49-1.13,2.92-2.34,4.28-3.63.7-.66,1.37-1.34,2.02-2.04.25-.27,1.72-1.93,1.72-1.93h48.83s1.47,1.66,1.72,1.93c.65.7,1.33,1.38,2.02,2.04,1.36,1.29,2.78,2.51,4.28,3.63,1.5,1.13,3.06,2.18,4.67,3.14,3.51,2.07,7.64,3.95,7.64,8.67,0,3.57-2.9,6.47-6.47,6.47,3.57,0,6.47,2.9,6.47,6.47Z"/>
      <path class="cls-1" d="m15.68,4.12c-.38-1.31.6-2.62,1.96-2.62h6.6c.91,0,1.71.6,1.97,1.47l3.75,12.8h6.06l-1.62-11.95c-.17-1.23.79-2.32,2.03-2.32h18.95c1.24,0,2.2,1.09,2.03,2.32l-1.62,11.95h6.06l3.75-12.8c.25-.87,1.06-1.47,1.96-1.47h6.6c1.37,0,2.35,1.31,1.97,2.62l-7.59,25.9c-.64,2.18-2.64,3.68-4.91,3.68h-.18c2.97,0,4.35,2.36,4.35,4.52s-1.52,3.96-3.54,4.41c-.32.07-.64.11-.98.11h-3.6c1.3.42,2.25,1.64,2.25,3.08,0,.77-.27,1.48-.72,2.04-.45.56-1.09.96-1.81,1.12-.23.05-.46.08-.7.08-.13,0-.25,0-.37-.02,0,20.9,4.37,41.73,12.23,59.56h2.36c1.34,0,2.18,1.44,1.52,2.61l-3.85,4.65H21.9l-3.85-4.65c-.66-1.17.19-2.61,1.52-2.61h2.36c8.05-18.01,12.52-38.43,12.52-59.6-.21.05-.43.07-.66.07-1.79,0-3.24-1.45-3.24-3.24,0-1.44.94-2.66,2.24-3.08h-4.32c-2.48-.02-4.48-2.04-4.48-4.52s2.02-4.52,4.52-4.52h-.34c-2.27,0-4.28-1.5-4.92-3.68L15.68,4.12Z"/>
    </g>
  </g>
</svg>